<mxfile host="app.diagrams.net" modified="2024-03-14T00:29:27.287Z" agent="Mozilla/5.0 (X11; Linux x86_64) AppleWebKit/537.36 (KHTML, like Gecko) Chrome/122.0.0.0 Safari/537.36" etag="WV5kRCHOZxUabDXjg2LN" version="24.0.6" type="github">
  <diagram id="C5RBs43oDa-KdzZeNtuy" name="Page-1">
    <mxGraphModel dx="1728" dy="639" grid="1" gridSize="10" guides="1" tooltips="1" connect="1" arrows="1" fold="1" page="1" pageScale="1" pageWidth="827" pageHeight="1169" math="0" shadow="0">
      <root>
        <mxCell id="WIyWlLk6GJQsqaUBKTNV-0" />
        <mxCell id="WIyWlLk6GJQsqaUBKTNV-1" parent="WIyWlLk6GJQsqaUBKTNV-0" />
        <mxCell id="_P-o3jj2x-MagiqrzHoN-36" style="edgeStyle=orthogonalEdgeStyle;rounded=0;orthogonalLoop=1;jettySize=auto;html=1;" parent="WIyWlLk6GJQsqaUBKTNV-1" edge="1">
          <mxGeometry relative="1" as="geometry">
            <mxPoint x="550" y="59.999999999999886" as="sourcePoint" />
          </mxGeometry>
        </mxCell>
        <mxCell id="_P-o3jj2x-MagiqrzHoN-37" style="edgeStyle=orthogonalEdgeStyle;rounded=0;orthogonalLoop=1;jettySize=auto;html=1;" parent="WIyWlLk6GJQsqaUBKTNV-1" edge="1">
          <mxGeometry relative="1" as="geometry">
            <mxPoint x="550" y="120" as="sourcePoint" />
          </mxGeometry>
        </mxCell>
        <mxCell id="_P-o3jj2x-MagiqrzHoN-39" style="edgeStyle=orthogonalEdgeStyle;rounded=0;orthogonalLoop=1;jettySize=auto;html=1;" parent="WIyWlLk6GJQsqaUBKTNV-1" edge="1">
          <mxGeometry relative="1" as="geometry">
            <mxPoint x="550" y="275.0000000000001" as="sourcePoint" />
          </mxGeometry>
        </mxCell>
        <mxCell id="TlEk8xUyTdZgp2CP_TQV-13" value="&lt;div style=&quot;text-align: center;&quot;&gt;&lt;b&gt;&lt;font style=&quot;font-size: 16px;&quot;&gt;Label&lt;/font&gt;&lt;/b&gt;&lt;/div&gt;&lt;b&gt;&lt;div&gt;&lt;b&gt;&lt;br&gt;&lt;/b&gt;&lt;/div&gt;&lt;div&gt;&lt;b&gt;&lt;br&gt;&lt;/b&gt;&lt;/div&gt;&lt;div&gt;&lt;br&gt;&lt;/div&gt;&amp;nbsp;Manual Steps&lt;/b&gt;&amp;nbsp; &amp;nbsp;&amp;nbsp;&lt;b&gt;Supervisor&lt;/b&gt;&lt;div&gt;&lt;br&gt;&lt;/div&gt;&lt;div&gt;&lt;br&gt;&lt;/div&gt;&lt;div&gt;&lt;br&gt;&lt;/div&gt;&lt;div&gt;&amp;nbsp; &amp;nbsp; &amp;nbsp; &lt;b&gt;Error&lt;/b&gt;&amp;nbsp; &amp;nbsp; &amp;nbsp; &amp;nbsp; &amp;nbsp; &amp;nbsp; &amp;nbsp; &amp;nbsp;&amp;nbsp;&lt;b&gt;Check&lt;/b&gt;&lt;/div&gt;" style="shape=note;size=10;whiteSpace=wrap;html=1;fontSize=10;align=left;" vertex="1" parent="WIyWlLk6GJQsqaUBKTNV-1">
          <mxGeometry x="481.17" y="190" width="130" height="140" as="geometry" />
        </mxCell>
        <mxCell id="TlEk8xUyTdZgp2CP_TQV-12" value="" style="verticalLabelPosition=middle;verticalAlign=middle;html=1;shape=trapezoid;perimeter=trapezoidPerimeter;whiteSpace=wrap;size=0.23;arcSize=10;flipV=1;labelPosition=center;align=center;fillColor=#f5f5f5;fontColor=#333333;strokeColor=#666666;" vertex="1" parent="WIyWlLk6GJQsqaUBKTNV-1">
          <mxGeometry x="491.16999999999996" y="233" width="40" height="20" as="geometry" />
        </mxCell>
        <mxCell id="TlEk8xUyTdZgp2CP_TQV-14" value="" style="rounded=1;whiteSpace=wrap;html=1;fontSize=12;glass=0;strokeWidth=1;shadow=0;" vertex="1" parent="WIyWlLk6GJQsqaUBKTNV-1">
          <mxGeometry x="561.17" y="233" width="30" height="20" as="geometry" />
        </mxCell>
        <mxCell id="TlEk8xUyTdZgp2CP_TQV-15" value="" style="shape=hexagon;perimeter=hexagonPerimeter2;whiteSpace=wrap;html=1;fixedSize=1;fillColor=#fff2cc;strokeColor=#d6b656;size=10;" vertex="1" parent="WIyWlLk6GJQsqaUBKTNV-1">
          <mxGeometry x="551.17" y="282" width="50" height="20" as="geometry" />
        </mxCell>
        <mxCell id="TlEk8xUyTdZgp2CP_TQV-16" value="" style="rounded=1;whiteSpace=wrap;html=1;fillColor=#f8cecc;strokeColor=#b85450;" vertex="1" parent="WIyWlLk6GJQsqaUBKTNV-1">
          <mxGeometry x="496.16999999999996" y="282" width="30" height="20" as="geometry" />
        </mxCell>
        <mxCell id="TlEk8xUyTdZgp2CP_TQV-65" style="edgeStyle=orthogonalEdgeStyle;rounded=0;orthogonalLoop=1;jettySize=auto;html=1;entryX=0;entryY=0.5;entryDx=0;entryDy=0;fillColor=#f8cecc;strokeColor=#b85450;" edge="1" parent="WIyWlLk6GJQsqaUBKTNV-1" source="TlEk8xUyTdZgp2CP_TQV-20" target="TlEk8xUyTdZgp2CP_TQV-63">
          <mxGeometry relative="1" as="geometry">
            <Array as="points">
              <mxPoint x="160" y="780" />
              <mxPoint x="160" y="333" />
            </Array>
          </mxGeometry>
        </mxCell>
        <mxCell id="TlEk8xUyTdZgp2CP_TQV-130" value="No" style="edgeLabel;html=1;align=center;verticalAlign=middle;resizable=0;points=[];" vertex="1" connectable="0" parent="TlEk8xUyTdZgp2CP_TQV-65">
          <mxGeometry x="-0.9649" y="1" relative="1" as="geometry">
            <mxPoint y="11" as="offset" />
          </mxGeometry>
        </mxCell>
        <mxCell id="TlEk8xUyTdZgp2CP_TQV-90" style="edgeStyle=orthogonalEdgeStyle;rounded=0;orthogonalLoop=1;jettySize=auto;html=1;entryX=0.5;entryY=0;entryDx=0;entryDy=0;" edge="1" parent="WIyWlLk6GJQsqaUBKTNV-1" source="TlEk8xUyTdZgp2CP_TQV-20" target="TlEk8xUyTdZgp2CP_TQV-46">
          <mxGeometry relative="1" as="geometry">
            <Array as="points">
              <mxPoint x="51.5" y="820" />
              <mxPoint x="291.5" y="820" />
              <mxPoint x="291.5" y="290" />
              <mxPoint x="396.5" y="290" />
            </Array>
          </mxGeometry>
        </mxCell>
        <mxCell id="TlEk8xUyTdZgp2CP_TQV-20" value="TS Activated?" style="shape=hexagon;perimeter=hexagonPerimeter2;whiteSpace=wrap;html=1;fixedSize=1;fillColor=#fff2cc;strokeColor=#d6b656;" vertex="1" parent="WIyWlLk6GJQsqaUBKTNV-1">
          <mxGeometry x="19" y="760" width="125" height="40" as="geometry" />
        </mxCell>
        <mxCell id="TlEk8xUyTdZgp2CP_TQV-43" style="edgeStyle=orthogonalEdgeStyle;rounded=0;orthogonalLoop=1;jettySize=auto;html=1;" edge="1" parent="WIyWlLk6GJQsqaUBKTNV-1" source="TlEk8xUyTdZgp2CP_TQV-21" target="TlEk8xUyTdZgp2CP_TQV-20">
          <mxGeometry relative="1" as="geometry" />
        </mxCell>
        <mxCell id="TlEk8xUyTdZgp2CP_TQV-21" value="Close SDC" style="rounded=1;whiteSpace=wrap;html=1;" vertex="1" parent="WIyWlLk6GJQsqaUBKTNV-1">
          <mxGeometry x="21.5" y="680" width="120" height="50" as="geometry" />
        </mxCell>
        <mxCell id="TlEk8xUyTdZgp2CP_TQV-22" style="edgeStyle=orthogonalEdgeStyle;rounded=0;orthogonalLoop=1;jettySize=auto;html=1;" edge="1" parent="WIyWlLk6GJQsqaUBKTNV-1" source="TlEk8xUyTdZgp2CP_TQV-23" target="TlEk8xUyTdZgp2CP_TQV-34">
          <mxGeometry relative="1" as="geometry">
            <mxPoint x="81.5" y="380" as="targetPoint" />
          </mxGeometry>
        </mxCell>
        <mxCell id="TlEk8xUyTdZgp2CP_TQV-23" value="Start Toggling Watchdog" style="rounded=1;whiteSpace=wrap;html=1;fontSize=12;glass=0;strokeWidth=1;shadow=0;" vertex="1" parent="WIyWlLk6GJQsqaUBKTNV-1">
          <mxGeometry x="21.5" y="310" width="120" height="40" as="geometry" />
        </mxCell>
        <mxCell id="TlEk8xUyTdZgp2CP_TQV-24" style="edgeStyle=orthogonalEdgeStyle;rounded=0;orthogonalLoop=1;jettySize=auto;html=1;" edge="1" parent="WIyWlLk6GJQsqaUBKTNV-1" source="TlEk8xUyTdZgp2CP_TQV-34" target="TlEk8xUyTdZgp2CP_TQV-26">
          <mxGeometry relative="1" as="geometry">
            <mxPoint x="81.5" y="420" as="sourcePoint" />
          </mxGeometry>
        </mxCell>
        <mxCell id="TlEk8xUyTdZgp2CP_TQV-25" style="edgeStyle=orthogonalEdgeStyle;rounded=0;orthogonalLoop=1;jettySize=auto;html=1;" edge="1" parent="WIyWlLk6GJQsqaUBKTNV-1" source="TlEk8xUyTdZgp2CP_TQV-26" target="TlEk8xUyTdZgp2CP_TQV-30">
          <mxGeometry relative="1" as="geometry">
            <mxPoint x="81.5" y="520" as="targetPoint" />
          </mxGeometry>
        </mxCell>
        <mxCell id="TlEk8xUyTdZgp2CP_TQV-26" value="Stop toggling Watchdog" style="rounded=1;whiteSpace=wrap;html=1;" vertex="1" parent="WIyWlLk6GJQsqaUBKTNV-1">
          <mxGeometry x="21.5" y="450" width="120" height="40" as="geometry" />
        </mxCell>
        <mxCell id="TlEk8xUyTdZgp2CP_TQV-27" style="edgeStyle=orthogonalEdgeStyle;rounded=0;orthogonalLoop=1;jettySize=auto;html=1;" edge="1" parent="WIyWlLk6GJQsqaUBKTNV-1" source="TlEk8xUyTdZgp2CP_TQV-30" target="TlEk8xUyTdZgp2CP_TQV-31">
          <mxGeometry relative="1" as="geometry" />
        </mxCell>
        <mxCell id="TlEk8xUyTdZgp2CP_TQV-67" style="edgeStyle=orthogonalEdgeStyle;rounded=0;orthogonalLoop=1;jettySize=auto;html=1;entryX=0;entryY=0.5;entryDx=0;entryDy=0;fillColor=#f8cecc;strokeColor=#b85450;" edge="1" parent="WIyWlLk6GJQsqaUBKTNV-1" source="TlEk8xUyTdZgp2CP_TQV-30" target="TlEk8xUyTdZgp2CP_TQV-63">
          <mxGeometry relative="1" as="geometry">
            <Array as="points">
              <mxPoint x="160" y="550" />
              <mxPoint x="160" y="333" />
            </Array>
          </mxGeometry>
        </mxCell>
        <mxCell id="TlEk8xUyTdZgp2CP_TQV-129" value="No" style="edgeLabel;html=1;align=center;verticalAlign=middle;resizable=0;points=[];" vertex="1" connectable="0" parent="TlEk8xUyTdZgp2CP_TQV-67">
          <mxGeometry x="-0.9421" relative="1" as="geometry">
            <mxPoint y="8" as="offset" />
          </mxGeometry>
        </mxCell>
        <mxCell id="TlEk8xUyTdZgp2CP_TQV-30" value="WD_is_ready == 0" style="shape=hexagon;perimeter=hexagonPerimeter2;whiteSpace=wrap;html=1;fixedSize=1;fillColor=#fff2cc;strokeColor=#d6b656;" vertex="1" parent="WIyWlLk6GJQsqaUBKTNV-1">
          <mxGeometry x="21.5" y="530" width="120" height="40" as="geometry" />
        </mxCell>
        <mxCell id="TlEk8xUyTdZgp2CP_TQV-42" style="edgeStyle=orthogonalEdgeStyle;rounded=0;orthogonalLoop=1;jettySize=auto;html=1;" edge="1" parent="WIyWlLk6GJQsqaUBKTNV-1" source="TlEk8xUyTdZgp2CP_TQV-31" target="TlEk8xUyTdZgp2CP_TQV-21">
          <mxGeometry relative="1" as="geometry" />
        </mxCell>
        <mxCell id="TlEk8xUyTdZgp2CP_TQV-31" value="Start toggling Watchdog again" style="rounded=1;whiteSpace=wrap;html=1;fontSize=12;glass=0;strokeWidth=1;shadow=0;" vertex="1" parent="WIyWlLk6GJQsqaUBKTNV-1">
          <mxGeometry x="21.5" y="600" width="120" height="40" as="geometry" />
        </mxCell>
        <mxCell id="TlEk8xUyTdZgp2CP_TQV-68" style="edgeStyle=orthogonalEdgeStyle;rounded=0;orthogonalLoop=1;jettySize=auto;html=1;entryX=0;entryY=0.5;entryDx=0;entryDy=0;fillColor=#f8cecc;strokeColor=#b85450;" edge="1" parent="WIyWlLk6GJQsqaUBKTNV-1" source="TlEk8xUyTdZgp2CP_TQV-34" target="TlEk8xUyTdZgp2CP_TQV-63">
          <mxGeometry relative="1" as="geometry">
            <Array as="points">
              <mxPoint x="160" y="400" />
              <mxPoint x="160" y="333" />
            </Array>
          </mxGeometry>
        </mxCell>
        <mxCell id="TlEk8xUyTdZgp2CP_TQV-128" value="No" style="edgeLabel;html=1;align=center;verticalAlign=middle;resizable=0;points=[];" vertex="1" connectable="0" parent="TlEk8xUyTdZgp2CP_TQV-68">
          <mxGeometry x="-0.8393" relative="1" as="geometry">
            <mxPoint y="11" as="offset" />
          </mxGeometry>
        </mxCell>
        <mxCell id="TlEk8xUyTdZgp2CP_TQV-34" value="WD_is_ready == 1" style="shape=hexagon;perimeter=hexagonPerimeter2;whiteSpace=wrap;html=1;fixedSize=1;fillColor=#fff2cc;strokeColor=#d6b656;" vertex="1" parent="WIyWlLk6GJQsqaUBKTNV-1">
          <mxGeometry x="21.5" y="380" width="120" height="40" as="geometry" />
        </mxCell>
        <mxCell id="TlEk8xUyTdZgp2CP_TQV-35" style="edgeStyle=orthogonalEdgeStyle;rounded=0;orthogonalLoop=1;jettySize=auto;html=1;" edge="1" parent="WIyWlLk6GJQsqaUBKTNV-1" source="TlEk8xUyTdZgp2CP_TQV-36" target="TlEk8xUyTdZgp2CP_TQV-23">
          <mxGeometry relative="1" as="geometry" />
        </mxCell>
        <mxCell id="TlEk8xUyTdZgp2CP_TQV-36" value="Push External Activation&amp;nbsp;&lt;div&gt;Button&lt;/div&gt;" style="verticalLabelPosition=middle;verticalAlign=middle;html=1;shape=trapezoid;perimeter=trapezoidPerimeter;whiteSpace=wrap;size=0.23;arcSize=10;flipV=1;labelPosition=center;align=center;fillColor=#f5f5f5;fontColor=#333333;strokeColor=#666666;" vertex="1" parent="WIyWlLk6GJQsqaUBKTNV-1">
          <mxGeometry x="26.5" y="200" width="110" height="60" as="geometry" />
        </mxCell>
        <mxCell id="TlEk8xUyTdZgp2CP_TQV-39" style="edgeStyle=orthogonalEdgeStyle;rounded=0;orthogonalLoop=1;jettySize=auto;html=1;" edge="1" parent="WIyWlLk6GJQsqaUBKTNV-1" source="TlEk8xUyTdZgp2CP_TQV-40" target="TlEk8xUyTdZgp2CP_TQV-41">
          <mxGeometry relative="1" as="geometry" />
        </mxCell>
        <mxCell id="TlEk8xUyTdZgp2CP_TQV-40" value="Turn on ASMS" style="verticalLabelPosition=middle;verticalAlign=middle;html=1;shape=trapezoid;perimeter=trapezoidPerimeter;whiteSpace=wrap;size=0.23;arcSize=10;flipV=1;labelPosition=center;align=center;fillColor=#f5f5f5;fontColor=#333333;strokeColor=#666666;" vertex="1" parent="WIyWlLk6GJQsqaUBKTNV-1">
          <mxGeometry x="321.5" y="200" width="110" height="60" as="geometry" />
        </mxCell>
        <mxCell id="TlEk8xUyTdZgp2CP_TQV-88" style="edgeStyle=orthogonalEdgeStyle;rounded=0;orthogonalLoop=1;jettySize=auto;html=1;entryX=1;entryY=0.5;entryDx=0;entryDy=0;" edge="1" parent="WIyWlLk6GJQsqaUBKTNV-1" source="TlEk8xUyTdZgp2CP_TQV-41" target="TlEk8xUyTdZgp2CP_TQV-36">
          <mxGeometry relative="1" as="geometry" />
        </mxCell>
        <mxCell id="TlEk8xUyTdZgp2CP_TQV-41" value="Turn on TSMS" style="verticalLabelPosition=middle;verticalAlign=middle;html=1;shape=trapezoid;perimeter=trapezoidPerimeter;whiteSpace=wrap;size=0.23;arcSize=10;flipV=1;labelPosition=center;align=center;fillColor=#f5f5f5;fontColor=#333333;strokeColor=#666666;" vertex="1" parent="WIyWlLk6GJQsqaUBKTNV-1">
          <mxGeometry x="161.5" y="200" width="110" height="60" as="geometry" />
        </mxCell>
        <mxCell id="TlEk8xUyTdZgp2CP_TQV-44" style="edgeStyle=orthogonalEdgeStyle;rounded=0;orthogonalLoop=1;jettySize=auto;html=1;entryX=0.5;entryY=0;entryDx=0;entryDy=0;" edge="1" parent="WIyWlLk6GJQsqaUBKTNV-1" source="TlEk8xUyTdZgp2CP_TQV-46" target="TlEk8xUyTdZgp2CP_TQV-48">
          <mxGeometry relative="1" as="geometry">
            <mxPoint x="396.16999999999996" y="380" as="targetPoint" />
            <mxPoint x="396.16999999999996" y="350" as="sourcePoint" />
          </mxGeometry>
        </mxCell>
        <mxCell id="TlEk8xUyTdZgp2CP_TQV-69" style="edgeStyle=orthogonalEdgeStyle;rounded=0;orthogonalLoop=1;jettySize=auto;html=1;entryX=1;entryY=0.5;entryDx=0;entryDy=0;fillColor=#f8cecc;strokeColor=#b85450;jumpStyle=line;" edge="1" parent="WIyWlLk6GJQsqaUBKTNV-1" source="TlEk8xUyTdZgp2CP_TQV-46" target="TlEk8xUyTdZgp2CP_TQV-62">
          <mxGeometry relative="1" as="geometry">
            <Array as="points">
              <mxPoint x="281.5" y="330" />
              <mxPoint x="281.5" y="685" />
            </Array>
          </mxGeometry>
        </mxCell>
        <mxCell id="TlEk8xUyTdZgp2CP_TQV-127" value="No" style="edgeLabel;html=1;align=center;verticalAlign=middle;resizable=0;points=[];" vertex="1" connectable="0" parent="TlEk8xUyTdZgp2CP_TQV-69">
          <mxGeometry x="-0.9359" y="-1" relative="1" as="geometry">
            <mxPoint y="11" as="offset" />
          </mxGeometry>
        </mxCell>
        <mxCell id="TlEk8xUyTdZgp2CP_TQV-46" value="BP1 &amp;gt; 6 bar &amp;amp;&amp;amp; BP2 &amp;gt; 6 bar" style="shape=hexagon;perimeter=hexagonPerimeter2;whiteSpace=wrap;html=1;fixedSize=1;fillColor=#fff2cc;strokeColor=#d6b656;" vertex="1" parent="WIyWlLk6GJQsqaUBKTNV-1">
          <mxGeometry x="316.17" y="310" width="160" height="40" as="geometry" />
        </mxCell>
        <mxCell id="TlEk8xUyTdZgp2CP_TQV-70" style="edgeStyle=orthogonalEdgeStyle;rounded=0;orthogonalLoop=1;jettySize=auto;html=1;entryX=1;entryY=0.5;entryDx=0;entryDy=0;fillColor=#f8cecc;strokeColor=#b85450;jumpStyle=line;" edge="1" parent="WIyWlLk6GJQsqaUBKTNV-1" source="TlEk8xUyTdZgp2CP_TQV-48" target="TlEk8xUyTdZgp2CP_TQV-62">
          <mxGeometry relative="1" as="geometry">
            <Array as="points">
              <mxPoint x="281.5" y="433" />
              <mxPoint x="281.5" y="685" />
            </Array>
          </mxGeometry>
        </mxCell>
        <mxCell id="TlEk8xUyTdZgp2CP_TQV-126" value="No" style="edgeLabel;html=1;align=center;verticalAlign=middle;resizable=0;points=[];" vertex="1" connectable="0" parent="TlEk8xUyTdZgp2CP_TQV-70">
          <mxGeometry x="-0.9464" relative="1" as="geometry">
            <mxPoint y="8" as="offset" />
          </mxGeometry>
        </mxCell>
        <mxCell id="TlEk8xUyTdZgp2CP_TQV-95" style="edgeStyle=orthogonalEdgeStyle;rounded=0;orthogonalLoop=1;jettySize=auto;html=1;entryX=0.5;entryY=0;entryDx=0;entryDy=0;" edge="1" parent="WIyWlLk6GJQsqaUBKTNV-1" source="TlEk8xUyTdZgp2CP_TQV-48" target="TlEk8xUyTdZgp2CP_TQV-49">
          <mxGeometry relative="1" as="geometry" />
        </mxCell>
        <mxCell id="TlEk8xUyTdZgp2CP_TQV-48" value="BP3 &amp;gt; BP1 * 8.3 bar &amp;amp;&amp;amp;&amp;nbsp;&lt;div&gt;BP4 &amp;gt; BP2 * 8.3 bar&lt;/div&gt;" style="shape=hexagon;perimeter=hexagonPerimeter2;whiteSpace=wrap;html=1;fixedSize=1;fillColor=#fff2cc;strokeColor=#d6b656;" vertex="1" parent="WIyWlLk6GJQsqaUBKTNV-1">
          <mxGeometry x="311.17" y="405" width="170" height="55" as="geometry" />
        </mxCell>
        <mxCell id="TlEk8xUyTdZgp2CP_TQV-96" style="edgeStyle=orthogonalEdgeStyle;rounded=0;orthogonalLoop=1;jettySize=auto;html=1;entryX=0.5;entryY=0;entryDx=0;entryDy=0;" edge="1" parent="WIyWlLk6GJQsqaUBKTNV-1" source="TlEk8xUyTdZgp2CP_TQV-49" target="TlEk8xUyTdZgp2CP_TQV-52">
          <mxGeometry relative="1" as="geometry" />
        </mxCell>
        <mxCell id="TlEk8xUyTdZgp2CP_TQV-49" value="Turn off valve MB1&lt;div&gt;Turn on valve MB2&lt;/div&gt;" style="rounded=1;whiteSpace=wrap;html=1;" vertex="1" parent="WIyWlLk6GJQsqaUBKTNV-1">
          <mxGeometry x="336.16999999999996" y="490" width="120" height="50" as="geometry" />
        </mxCell>
        <mxCell id="TlEk8xUyTdZgp2CP_TQV-99" style="edgeStyle=orthogonalEdgeStyle;rounded=0;orthogonalLoop=1;jettySize=auto;html=1;entryX=0.5;entryY=0;entryDx=0;entryDy=0;" edge="1" parent="WIyWlLk6GJQsqaUBKTNV-1" source="TlEk8xUyTdZgp2CP_TQV-50" target="TlEk8xUyTdZgp2CP_TQV-53">
          <mxGeometry relative="1" as="geometry" />
        </mxCell>
        <mxCell id="TlEk8xUyTdZgp2CP_TQV-50" value="Turn on valve MB1&lt;div&gt;Turn off valve MB2&lt;/div&gt;" style="rounded=1;whiteSpace=wrap;html=1;" vertex="1" parent="WIyWlLk6GJQsqaUBKTNV-1">
          <mxGeometry x="336.16999999999996" y="660" width="120" height="50" as="geometry" />
        </mxCell>
        <mxCell id="TlEk8xUyTdZgp2CP_TQV-78" style="edgeStyle=orthogonalEdgeStyle;rounded=0;orthogonalLoop=1;jettySize=auto;html=1;entryX=0.5;entryY=0;entryDx=0;entryDy=0;" edge="1" parent="WIyWlLk6GJQsqaUBKTNV-1" source="TlEk8xUyTdZgp2CP_TQV-51" target="TlEk8xUyTdZgp2CP_TQV-61">
          <mxGeometry relative="1" as="geometry" />
        </mxCell>
        <mxCell id="TlEk8xUyTdZgp2CP_TQV-51" value="Turn on valve MB1&lt;div&gt;Turn on valve MB2&lt;/div&gt;" style="rounded=1;whiteSpace=wrap;html=1;" vertex="1" parent="WIyWlLk6GJQsqaUBKTNV-1">
          <mxGeometry x="619" y="387.5" width="120" height="47.5" as="geometry" />
        </mxCell>
        <mxCell id="TlEk8xUyTdZgp2CP_TQV-71" style="edgeStyle=orthogonalEdgeStyle;rounded=0;orthogonalLoop=1;jettySize=auto;html=1;entryX=1;entryY=0.5;entryDx=0;entryDy=0;fillColor=#f8cecc;strokeColor=#b85450;jumpStyle=line;" edge="1" parent="WIyWlLk6GJQsqaUBKTNV-1" source="TlEk8xUyTdZgp2CP_TQV-52" target="TlEk8xUyTdZgp2CP_TQV-62">
          <mxGeometry relative="1" as="geometry">
            <Array as="points">
              <mxPoint x="281.5" y="597" />
              <mxPoint x="281.5" y="685" />
            </Array>
          </mxGeometry>
        </mxCell>
        <mxCell id="TlEk8xUyTdZgp2CP_TQV-125" value="No" style="edgeLabel;html=1;align=center;verticalAlign=middle;resizable=0;points=[];" vertex="1" connectable="0" parent="TlEk8xUyTdZgp2CP_TQV-71">
          <mxGeometry x="-0.8759" relative="1" as="geometry">
            <mxPoint y="10" as="offset" />
          </mxGeometry>
        </mxCell>
        <mxCell id="TlEk8xUyTdZgp2CP_TQV-98" style="edgeStyle=orthogonalEdgeStyle;rounded=0;orthogonalLoop=1;jettySize=auto;html=1;entryX=0.5;entryY=0;entryDx=0;entryDy=0;" edge="1" parent="WIyWlLk6GJQsqaUBKTNV-1" source="TlEk8xUyTdZgp2CP_TQV-52" target="TlEk8xUyTdZgp2CP_TQV-50">
          <mxGeometry relative="1" as="geometry" />
        </mxCell>
        <mxCell id="TlEk8xUyTdZgp2CP_TQV-52" value="BP3 &amp;lt; 1 bar &amp;amp;&amp;amp;&amp;nbsp;&lt;div&gt;BP4 &amp;gt; BP2 * 8.3 bar&lt;/div&gt;" style="shape=hexagon;perimeter=hexagonPerimeter2;whiteSpace=wrap;html=1;fixedSize=1;fillColor=#fff2cc;strokeColor=#d6b656;" vertex="1" parent="WIyWlLk6GJQsqaUBKTNV-1">
          <mxGeometry x="311.17" y="570" width="170" height="55" as="geometry" />
        </mxCell>
        <mxCell id="TlEk8xUyTdZgp2CP_TQV-73" style="edgeStyle=orthogonalEdgeStyle;rounded=0;orthogonalLoop=1;jettySize=auto;html=1;entryX=1;entryY=0.5;entryDx=0;entryDy=0;fillColor=#f8cecc;strokeColor=#b85450;jumpStyle=line;" edge="1" parent="WIyWlLk6GJQsqaUBKTNV-1" source="TlEk8xUyTdZgp2CP_TQV-53" target="TlEk8xUyTdZgp2CP_TQV-62">
          <mxGeometry relative="1" as="geometry">
            <Array as="points">
              <mxPoint x="281.5" y="773" />
              <mxPoint x="281.5" y="685" />
            </Array>
          </mxGeometry>
        </mxCell>
        <mxCell id="TlEk8xUyTdZgp2CP_TQV-124" value="No" style="edgeLabel;html=1;align=center;verticalAlign=middle;resizable=0;points=[];" vertex="1" connectable="0" parent="TlEk8xUyTdZgp2CP_TQV-73">
          <mxGeometry x="-0.8746" y="1" relative="1" as="geometry">
            <mxPoint y="7" as="offset" />
          </mxGeometry>
        </mxCell>
        <mxCell id="TlEk8xUyTdZgp2CP_TQV-94" style="edgeStyle=orthogonalEdgeStyle;rounded=0;orthogonalLoop=1;jettySize=auto;html=1;entryX=0.5;entryY=0;entryDx=0;entryDy=0;exitX=0.5;exitY=1;exitDx=0;exitDy=0;" edge="1" parent="WIyWlLk6GJQsqaUBKTNV-1" source="TlEk8xUyTdZgp2CP_TQV-53" target="TlEk8xUyTdZgp2CP_TQV-51">
          <mxGeometry relative="1" as="geometry">
            <Array as="points">
              <mxPoint x="396" y="820" />
              <mxPoint x="492" y="820" />
              <mxPoint x="492" y="370" />
              <mxPoint x="680" y="370" />
              <mxPoint x="680" y="388" />
            </Array>
          </mxGeometry>
        </mxCell>
        <mxCell id="TlEk8xUyTdZgp2CP_TQV-53" value="BP3 &amp;gt; BP1 * 8.3 bar &amp;amp;&amp;amp;&amp;nbsp;&lt;div&gt;BP4 &amp;lt; 1 bar&lt;/div&gt;" style="shape=hexagon;perimeter=hexagonPerimeter2;whiteSpace=wrap;html=1;fixedSize=1;fillColor=#fff2cc;strokeColor=#d6b656;" vertex="1" parent="WIyWlLk6GJQsqaUBKTNV-1">
          <mxGeometry x="311.17" y="745" width="170" height="55" as="geometry" />
        </mxCell>
        <mxCell id="TlEk8xUyTdZgp2CP_TQV-54" style="edgeStyle=orthogonalEdgeStyle;rounded=0;orthogonalLoop=1;jettySize=auto;html=1;" edge="1" parent="WIyWlLk6GJQsqaUBKTNV-1" source="TlEk8xUyTdZgp2CP_TQV-56" target="TlEk8xUyTdZgp2CP_TQV-58">
          <mxGeometry relative="1" as="geometry">
            <mxPoint x="620.5" y="717.5" as="sourcePoint" />
            <mxPoint x="620.5" y="757.5" as="targetPoint" />
          </mxGeometry>
        </mxCell>
        <mxCell id="TlEk8xUyTdZgp2CP_TQV-85" style="edgeStyle=orthogonalEdgeStyle;rounded=0;orthogonalLoop=1;jettySize=auto;html=1;entryX=0.5;entryY=1;entryDx=0;entryDy=0;exitX=0;exitY=0.5;exitDx=0;exitDy=0;fillColor=#f8cecc;strokeColor=#b85450;" edge="1" parent="WIyWlLk6GJQsqaUBKTNV-1" source="TlEk8xUyTdZgp2CP_TQV-56" target="TlEk8xUyTdZgp2CP_TQV-64">
          <mxGeometry relative="1" as="geometry">
            <Array as="points">
              <mxPoint x="553" y="558" />
              <mxPoint x="553" y="435" />
            </Array>
          </mxGeometry>
        </mxCell>
        <mxCell id="TlEk8xUyTdZgp2CP_TQV-120" value="No" style="edgeLabel;html=1;align=center;verticalAlign=middle;resizable=0;points=[];" vertex="1" connectable="0" parent="TlEk8xUyTdZgp2CP_TQV-85">
          <mxGeometry x="-0.8342" relative="1" as="geometry">
            <mxPoint x="3" y="9" as="offset" />
          </mxGeometry>
        </mxCell>
        <mxCell id="TlEk8xUyTdZgp2CP_TQV-56" value="NOW - CU_TIMESTAMP &amp;lt; TIME_OUT" style="shape=hexagon;perimeter=hexagonPerimeter2;whiteSpace=wrap;html=1;fixedSize=1;fillColor=#fff2cc;strokeColor=#d6b656;" vertex="1" parent="WIyWlLk6GJQsqaUBKTNV-1">
          <mxGeometry x="579" y="537.5" width="200" height="40" as="geometry" />
        </mxCell>
        <mxCell id="TlEk8xUyTdZgp2CP_TQV-80" style="edgeStyle=orthogonalEdgeStyle;rounded=0;orthogonalLoop=1;jettySize=auto;html=1;entryX=0.5;entryY=0;entryDx=0;entryDy=0;" edge="1" parent="WIyWlLk6GJQsqaUBKTNV-1" source="TlEk8xUyTdZgp2CP_TQV-58" target="TlEk8xUyTdZgp2CP_TQV-79">
          <mxGeometry relative="1" as="geometry" />
        </mxCell>
        <mxCell id="TlEk8xUyTdZgp2CP_TQV-86" style="edgeStyle=orthogonalEdgeStyle;rounded=0;orthogonalLoop=1;jettySize=auto;html=1;entryX=0.5;entryY=1;entryDx=0;entryDy=0;exitX=0;exitY=0.5;exitDx=0;exitDy=0;fillColor=#f8cecc;strokeColor=#b85450;" edge="1" parent="WIyWlLk6GJQsqaUBKTNV-1" source="TlEk8xUyTdZgp2CP_TQV-58" target="TlEk8xUyTdZgp2CP_TQV-64">
          <mxGeometry relative="1" as="geometry">
            <Array as="points">
              <mxPoint x="553" y="628" />
              <mxPoint x="553" y="435" />
            </Array>
          </mxGeometry>
        </mxCell>
        <mxCell id="TlEk8xUyTdZgp2CP_TQV-121" value="No" style="edgeLabel;html=1;align=center;verticalAlign=middle;resizable=0;points=[];" vertex="1" connectable="0" parent="TlEk8xUyTdZgp2CP_TQV-86">
          <mxGeometry x="-0.9269" relative="1" as="geometry">
            <mxPoint y="9" as="offset" />
          </mxGeometry>
        </mxCell>
        <mxCell id="TlEk8xUyTdZgp2CP_TQV-58" value="NOW - CONTROLER_TIMESTAMP &amp;lt; TIME_OUT" style="shape=hexagon;perimeter=hexagonPerimeter2;whiteSpace=wrap;html=1;fixedSize=1;fillColor=#fff2cc;strokeColor=#d6b656;" vertex="1" parent="WIyWlLk6GJQsqaUBKTNV-1">
          <mxGeometry x="579" y="607.5" width="200" height="40" as="geometry" />
        </mxCell>
        <mxCell id="TlEk8xUyTdZgp2CP_TQV-59" style="edgeStyle=orthogonalEdgeStyle;rounded=0;orthogonalLoop=1;jettySize=auto;html=1;" edge="1" parent="WIyWlLk6GJQsqaUBKTNV-1" source="TlEk8xUyTdZgp2CP_TQV-61" target="TlEk8xUyTdZgp2CP_TQV-56">
          <mxGeometry relative="1" as="geometry" />
        </mxCell>
        <mxCell id="TlEk8xUyTdZgp2CP_TQV-84" style="edgeStyle=orthogonalEdgeStyle;rounded=0;orthogonalLoop=1;jettySize=auto;html=1;entryX=0.5;entryY=1;entryDx=0;entryDy=0;exitX=0;exitY=0.5;exitDx=0;exitDy=0;fillColor=#f8cecc;strokeColor=#b85450;" edge="1" parent="WIyWlLk6GJQsqaUBKTNV-1" source="TlEk8xUyTdZgp2CP_TQV-61" target="TlEk8xUyTdZgp2CP_TQV-64">
          <mxGeometry relative="1" as="geometry">
            <Array as="points">
              <mxPoint x="553" y="488" />
              <mxPoint x="553" y="435" />
            </Array>
          </mxGeometry>
        </mxCell>
        <mxCell id="TlEk8xUyTdZgp2CP_TQV-119" value="No" style="edgeLabel;html=1;align=center;verticalAlign=middle;resizable=0;points=[];" vertex="1" connectable="0" parent="TlEk8xUyTdZgp2CP_TQV-84">
          <mxGeometry x="-0.7714" y="1" relative="1" as="geometry">
            <mxPoint y="8" as="offset" />
          </mxGeometry>
        </mxCell>
        <mxCell id="TlEk8xUyTdZgp2CP_TQV-61" value="NOW - STEER_TIMESTAMP &amp;lt; TIME_OUT" style="shape=hexagon;perimeter=hexagonPerimeter2;whiteSpace=wrap;html=1;fixedSize=1;fillColor=#fff2cc;strokeColor=#d6b656;" vertex="1" parent="WIyWlLk6GJQsqaUBKTNV-1">
          <mxGeometry x="579" y="467.5" width="200" height="40" as="geometry" />
        </mxCell>
        <mxCell id="TlEk8xUyTdZgp2CP_TQV-62" value="EBS Error" style="rounded=1;whiteSpace=wrap;html=1;fillColor=#f8cecc;strokeColor=#b85450;" vertex="1" parent="WIyWlLk6GJQsqaUBKTNV-1">
          <mxGeometry x="167.75" y="660" width="97.5" height="50" as="geometry" />
        </mxCell>
        <mxCell id="TlEk8xUyTdZgp2CP_TQV-63" value="SDC Logic Error" style="rounded=1;whiteSpace=wrap;html=1;fillColor=#f8cecc;strokeColor=#b85450;" vertex="1" parent="WIyWlLk6GJQsqaUBKTNV-1">
          <mxGeometry x="171.5" y="310" width="97.5" height="45" as="geometry" />
        </mxCell>
        <mxCell id="TlEk8xUyTdZgp2CP_TQV-64" value="Component Failure" style="rounded=1;whiteSpace=wrap;html=1;fillColor=#f8cecc;strokeColor=#b85450;" vertex="1" parent="WIyWlLk6GJQsqaUBKTNV-1">
          <mxGeometry x="506.5" y="390" width="92.5" height="45" as="geometry" />
        </mxCell>
        <mxCell id="TlEk8xUyTdZgp2CP_TQV-82" style="edgeStyle=orthogonalEdgeStyle;rounded=0;orthogonalLoop=1;jettySize=auto;html=1;entryX=0.5;entryY=0;entryDx=0;entryDy=0;" edge="1" parent="WIyWlLk6GJQsqaUBKTNV-1" source="TlEk8xUyTdZgp2CP_TQV-79" target="TlEk8xUyTdZgp2CP_TQV-81">
          <mxGeometry relative="1" as="geometry" />
        </mxCell>
        <mxCell id="TlEk8xUyTdZgp2CP_TQV-93" style="edgeStyle=orthogonalEdgeStyle;rounded=0;orthogonalLoop=1;jettySize=auto;html=1;entryX=0.5;entryY=1;entryDx=0;entryDy=0;exitX=0;exitY=0.5;exitDx=0;exitDy=0;fillColor=#f8cecc;strokeColor=#b85450;" edge="1" parent="WIyWlLk6GJQsqaUBKTNV-1" source="TlEk8xUyTdZgp2CP_TQV-79" target="TlEk8xUyTdZgp2CP_TQV-64">
          <mxGeometry relative="1" as="geometry">
            <Array as="points">
              <mxPoint x="553" y="705" />
              <mxPoint x="553" y="435" />
            </Array>
          </mxGeometry>
        </mxCell>
        <mxCell id="TlEk8xUyTdZgp2CP_TQV-122" value="Yes" style="edgeLabel;html=1;align=center;verticalAlign=middle;resizable=0;points=[];" vertex="1" connectable="0" parent="TlEk8xUyTdZgp2CP_TQV-93">
          <mxGeometry x="-0.8777" y="2" relative="1" as="geometry">
            <mxPoint x="10" y="8" as="offset" />
          </mxGeometry>
        </mxCell>
        <mxCell id="TlEk8xUyTdZgp2CP_TQV-79" value="Emergency Signal?" style="shape=hexagon;perimeter=hexagonPerimeter2;whiteSpace=wrap;html=1;fixedSize=1;fillColor=#fff2cc;strokeColor=#d6b656;" vertex="1" parent="WIyWlLk6GJQsqaUBKTNV-1">
          <mxGeometry x="599" y="685" width="160" height="40" as="geometry" />
        </mxCell>
        <mxCell id="TlEk8xUyTdZgp2CP_TQV-81" value="Transition to ready state" style="rounded=1;whiteSpace=wrap;html=1;fillColor=#d5e8d4;strokeColor=#82b366;" vertex="1" parent="WIyWlLk6GJQsqaUBKTNV-1">
          <mxGeometry x="619" y="760" width="120" height="40" as="geometry" />
        </mxCell>
        <mxCell id="TlEk8xUyTdZgp2CP_TQV-105" style="edgeStyle=orthogonalEdgeStyle;rounded=0;orthogonalLoop=1;jettySize=auto;html=1;entryX=1;entryY=0.5;entryDx=0;entryDy=0;exitX=0.998;exitY=0.5;exitDx=0;exitDy=0;exitPerimeter=0;endArrow=none;endFill=0;dashed=1;" edge="1" parent="WIyWlLk6GJQsqaUBKTNV-1" source="TlEk8xUyTdZgp2CP_TQV-101" target="TlEk8xUyTdZgp2CP_TQV-61">
          <mxGeometry relative="1" as="geometry">
            <Array as="points">
              <mxPoint x="789" y="270" />
              <mxPoint x="789" y="488" />
            </Array>
          </mxGeometry>
        </mxCell>
        <mxCell id="TlEk8xUyTdZgp2CP_TQV-106" style="edgeStyle=orthogonalEdgeStyle;rounded=0;orthogonalLoop=1;jettySize=auto;html=1;entryX=1;entryY=0.5;entryDx=0;entryDy=0;exitX=1.002;exitY=0.5;exitDx=0;exitDy=0;exitPerimeter=0;endArrow=none;endFill=0;dashed=1;" edge="1" parent="WIyWlLk6GJQsqaUBKTNV-1" source="TlEk8xUyTdZgp2CP_TQV-101" target="TlEk8xUyTdZgp2CP_TQV-56">
          <mxGeometry relative="1" as="geometry">
            <Array as="points">
              <mxPoint x="799" y="270" />
              <mxPoint x="799" y="558" />
            </Array>
          </mxGeometry>
        </mxCell>
        <mxCell id="TlEk8xUyTdZgp2CP_TQV-107" style="edgeStyle=orthogonalEdgeStyle;rounded=0;orthogonalLoop=1;jettySize=auto;html=1;entryX=1;entryY=0.5;entryDx=0;entryDy=0;exitX=1.002;exitY=0.5;exitDx=0;exitDy=0;exitPerimeter=0;endArrow=none;endFill=0;dashed=1;" edge="1" parent="WIyWlLk6GJQsqaUBKTNV-1" source="TlEk8xUyTdZgp2CP_TQV-101" target="TlEk8xUyTdZgp2CP_TQV-58">
          <mxGeometry relative="1" as="geometry">
            <Array as="points">
              <mxPoint x="809" y="270" />
              <mxPoint x="809" y="628" />
            </Array>
          </mxGeometry>
        </mxCell>
        <mxCell id="TlEk8xUyTdZgp2CP_TQV-101" value="&lt;div&gt;&lt;br&gt;&lt;/div&gt;&lt;div&gt;&lt;div&gt;&lt;div&gt;&lt;span style=&quot;background-color: initial;&quot;&gt;STEER = Steering Actuator&lt;/span&gt;&lt;/div&gt;&lt;div&gt;CU = Computing Unit&lt;/div&gt;&lt;div&gt;CONTOLER = Electrical Powertrain Controler&lt;/div&gt;&lt;div&gt;&lt;br&gt;&lt;/div&gt;&lt;/div&gt;&lt;div&gt;Check if there was a timeout.&lt;br&gt;&lt;/div&gt;&lt;div&gt;NOW = Current Time&lt;/div&gt;&lt;div&gt;&amp;lt;Component&amp;gt;_Timestamp = The time when a CAN signal from &amp;lt;component&amp;gt; was received&lt;/div&gt;&lt;/div&gt;" style="shape=note;size=10;whiteSpace=wrap;html=1;fontSize=10;" vertex="1" parent="WIyWlLk6GJQsqaUBKTNV-1">
          <mxGeometry x="629" y="190" width="130" height="160" as="geometry" />
        </mxCell>
        <mxCell id="TlEk8xUyTdZgp2CP_TQV-117" style="edgeStyle=orthogonalEdgeStyle;rounded=0;orthogonalLoop=1;jettySize=auto;html=1;entryX=0;entryY=0.75;entryDx=0;entryDy=0;dashed=1;endArrow=none;endFill=0;" edge="1" parent="WIyWlLk6GJQsqaUBKTNV-1" source="TlEk8xUyTdZgp2CP_TQV-109" target="TlEk8xUyTdZgp2CP_TQV-79">
          <mxGeometry relative="1" as="geometry">
            <Array as="points">
              <mxPoint x="608" y="773" />
            </Array>
          </mxGeometry>
        </mxCell>
        <mxCell id="TlEk8xUyTdZgp2CP_TQV-109" value="CAN Emergency signal from RES or CU" style="shape=note;size=10;whiteSpace=wrap;html=1;fontSize=10;" vertex="1" parent="WIyWlLk6GJQsqaUBKTNV-1">
          <mxGeometry x="518.67" y="739.38" width="72.5" height="66.25" as="geometry" />
        </mxCell>
        <mxCell id="TlEk8xUyTdZgp2CP_TQV-112" style="edgeStyle=orthogonalEdgeStyle;rounded=0;orthogonalLoop=1;jettySize=auto;html=1;entryX=0.375;entryY=1;entryDx=0;entryDy=0;dashed=1;endArrow=none;endFill=0;" edge="1" parent="WIyWlLk6GJQsqaUBKTNV-1" source="TlEk8xUyTdZgp2CP_TQV-111" target="TlEk8xUyTdZgp2CP_TQV-46">
          <mxGeometry relative="1" as="geometry">
            <Array as="points">
              <mxPoint x="312" y="410" />
              <mxPoint x="312" y="370" />
              <mxPoint x="376" y="370" />
            </Array>
          </mxGeometry>
        </mxCell>
        <mxCell id="TlEk8xUyTdZgp2CP_TQV-111" value="Overpressure is handled mechanical with automatic release" style="shape=note;size=10;whiteSpace=wrap;html=1;fontSize=10;" vertex="1" parent="WIyWlLk6GJQsqaUBKTNV-1">
          <mxGeometry x="171.5" y="390" width="75" height="70" as="geometry" />
        </mxCell>
        <mxCell id="TlEk8xUyTdZgp2CP_TQV-114" style="edgeStyle=orthogonalEdgeStyle;rounded=0;orthogonalLoop=1;jettySize=auto;html=1;entryX=1;entryY=0;entryDx=0;entryDy=0;dashed=1;endArrow=none;endFill=0;" edge="1" parent="WIyWlLk6GJQsqaUBKTNV-1" source="TlEk8xUyTdZgp2CP_TQV-113" target="TlEk8xUyTdZgp2CP_TQV-21">
          <mxGeometry relative="1" as="geometry">
            <Array as="points">
              <mxPoint x="150" y="600" />
              <mxPoint x="150" y="680" />
            </Array>
          </mxGeometry>
        </mxCell>
        <mxCell id="TlEk8xUyTdZgp2CP_TQV-113" value="Implies closing the SDC in Supervisor and Watchdog (SDC Logic)" style="shape=note;size=10;whiteSpace=wrap;html=1;fontSize=10;" vertex="1" parent="WIyWlLk6GJQsqaUBKTNV-1">
          <mxGeometry x="179" y="540" width="75" height="77.5" as="geometry" />
        </mxCell>
      </root>
    </mxGraphModel>
  </diagram>
</mxfile>
